<svg xmlns="http://www.w3.org/2000/svg" viewBox="0 0 18 20">
  <title>umbrella</title>
  <path class="canopy"
        d="M1,10
           a8,8 0 1,1 16,0
           a3,4 0 0,0 -4,0
           a3,4 0 0,0 -4,0
           a3,4 0 0,0 -4,0
           a3,4 0 0,0 -4,0
           z" />
  <g stroke="#000">
      <line class="tip" stroke-linecap="round"
            x1="9" y1="2" x2="9" y2="1.5"/>
      <line class="shaft"
            x1="9" y1="9" x2="9" y2="18"/>
      <path class="handle" fill="none" stroke-linecap="round"
            d="M9,18 a1.5,1.5 0 1,1 -3,0" />
  </g>
  <g class="ribs"
     stroke="#eee" fill="none" stroke-width="0.2">
      <path d="M9,2 Q 5,5 5,9.95" />
      <line x1="9" y1="2" x2="9" y2="9.7"/>
      <path d="M9,2 Q 13,5 13,9.95" />
  </g>

</svg>
