<svg xmlns="http://www.w3.org/2000/svg" viewBox="0 0 25 25">
    <title>Twitter</title>
		<path d="
		    M25 2.4
		    a10.25 10.25 0 0 1-2.947.808
		    A5.144 5.144 0 0 0 24.308.376 10.27 10.27 0 0 1 21.05 1.62
		    a5.134 5.134 0 0 0-8.74 4.68
		    A14.56 14.56 0 0 1 1.74.94
		    a5.134 5.134 0 0 0 1.587 6.846 5.108 5.108 0 0 1-2.323-.642
		    a5.132 5.132 0 0 0 4.114 5.03 5.142 5.142 0 0 1-2.316.088 5.134 5.134 0 0 0 4.79 3.562 10.29 10.29 0 0 1-6.37 2.2
		    A10.44 10.44 0 0 1 0 18.012
		    a14.586 14.586 0 0 0 22.454-12.29
		    q0-.333-.015-.662
		    A10.423 10.423 0 0 0 25 2.405z" />
</svg>