<svg xmlns="http://www.w3.org/2000/svg" viewBox="0 0 25 25">
    <title>Twitter</title>
    <path d="M25,3
        a10.25,10.25,0,0,1,-2.947,0.8
        a5,5,0,0,0,2.26,-2.83
        a10.27,10.27,0,0,1,-3.26,1.24
        a5.13,5,0,0,0,-8.74,4.68
        a14.56,14.56,0,0,1,-10.57,-5.36
        a5.13,5,0,0,0,1.59,6.846
        a5.19,5,0,0,1,-2.32,-0.64
        a5.13,5,0,0,0,4,5.03
        a5.14,5,0,0,1,-2.32,0
        a5.13,5,0,0,0,4.8,3.562
        a10.3,10.29,0,0,1,-6.4,2.2
        a10.44,10.44,0,0,1,-1.22,0
        a14.586,14.59,0,0,0,22.45,-12.29
        q0,0,0,-0.66
        a10.4,10.4,0,0,0,2.56,-2.66z" />
</svg>