<svg xmlns="http://www.w3.org/2000/svg" viewBox="0 0 20 20">
    <title>WhatsApp</title>

    <path class="speechBubble"
          fill="#00e676" stroke="#fff" stroke-width="1.5"
          d="M2 18.5 l1-4 a8.5 8.5 0 1 1 3 3z"/>

    <path class="phone" fill="#fff"
          d="M15,12
            l-0.55,-0.25
            s-0.8,-0.35,-1.3,-0.6
            c-0.05,0,-0.1,-0.05,-0.15,-0.05
            c-0.15,0,-0.25,0.05,-0.35,0.1
            c0,0,-0.05,0.05,-0.75,0.85
            c-0.05,0.1,-0.15,0.15,-0.25,0.15
            a0.38,0.38,0,0,1,-0.2,-0.1
            c-0.55,-0.25,-1.05,-0.55,-1.45,-0.95
            c-0.1,-0.1,-0.25,-0.2,-0.35,-0.3
            c-0.35,-0.35,-0.7,-0.75,-0.95,-1.2
            l0,-0.1
            c-0.05,-0.05,-0.05,-0.1,-0.1,-0.2
            c0,-0.1,0,-0.2,0.05,-0.25
            c0,0,0.2,-0.25,0.35,-0.4
            c0.1,-0.1,0.15,-0.25,0.25,-0.35
            c0.1,-0.15,0.15,-0.35,0.1,-0.5
            c-0.05,-0.25,-0.65,-1.6,-0.8,-1.9
            c-0.1,-0.15,-0.2,-0.2,-0.35,-0.25
            h-0.55
            c-0.1,0,-0.2,0.05,-0.3,0.05
            l-0.05,0.05
            c-0.1,0.05,-0.2,0.15,-0.3,0.2
            c-0.1,0.1,-0.15,0.2,-0.25,0.3
            c-0.35,0.45,-0.55,1,-0.55,1.55
            c0,0.4,0.1,0.8,0.25,1.15
            l0.05,0.15
            c0.45,0.95,1.05,1.8,1.85,2.55
            l0.2,0.2
            c0.15,0.15,0.3,0.25,0.4,0.4
            c1.05,0.9,2.25,1.55,3.6,1.9
            c0.15,0.05,0.35,0.05,0.5,0.1
            h0.5
            c0.25,0,0.55,-0.1,0.75,-0.2
            c0.15,-0.1,0.25,-0.1,0.35,-0.2
            l0.1,-0.1
            c0.1,-0.1,0.2,-0.15,0.3,-0.25
            c0.1,-0.1,0.2,-0.2,0.25,-0.3
            c0.1,-0.2,0.15,-0.45,0.2,-0.7
            v-0.35
            s-0.05,-0.05,-0.15,-0.1
            z"/>

</svg>
