<svg xmlns="http://www.w3.org/2000/svg" viewBox="0 0 20 20">
    <title>WhatsApp</title>

    <path class="speechBubble"
          fill="#00e676" stroke="#fff" stroke-width="1.5"
          d="M1,18
            l1,-4
            a8.75,8.75 0 1,1 3 3
            z"/>

    <path class="phone" fill="#fff"
          d="M14.5,12
            c0.06,0.102,0.06,0.576,-0.138,1.128
            c-0.198,0.558,-1.152,1.062,-1.614,1.128
            a3.33,3.33,0,0,1,-1.506,-0.096
            a14.441,14.441,0,0,1,-1.362,-0.498
            c-2.394,-1.032,-3.96,-3.432,-4.08,-3.588
            c-0.12,-0.156,-0.978,-1.29,-0.978,-2.46
            s0.618,-1.746,0.834,-1.986
            c0.216,-0.24,0.48,-0.3,0.636,-0.3
            s0.318,0,0.456,0.006
            c0.144,0.006,0.342,-0.054,0.54,0.408
            c0.198,0.474,0.678,1.644,0.738,1.764
            c0.06,0.12,0.102,0.258,0.018,0.414
            c-0.078,0.156,-0.12,0.258,-0.24,0.396
            s-0.252,0.312,-0.36,0.414
            c-0.12,0.12,-0.246,0.246,-0.102,0.486
            c0.138,0.24,0.618,1.014,1.326,1.644
            c0.912,0.81,1.68,1.062,1.92,1.182
            c0.24,0.12,0.378,0.102,0.516,-0.06
            c0.138,-0.156,0.6,-0.696,0.756,-0.93
            c0.162,-0.24,0.318,-0.198,0.54,-0.12"/>

 </svg>